<?xml version="1.0" encoding="UTF-8"?>
<svg version="1.1" xmlns="http://www.w3.org/2000/svg" width="1024" height="1024">
<path d="M0 0 C337.92 0 675.84 0 1024 0 C1024 337.92 1024 675.84 1024 1024 C686.08 1024 348.16 1024 0 1024 C0 686.08 0 348.16 0 0 Z " fill="#F35927" transform="translate(0,0)"/>
<path d="M0 0 C6.71590716 5.65915986 10.6319705 12.27109909 11.5 21.125 C11.5 24.425 11.5 27.725 11.5 31.125 C4.57 31.125 -2.36 31.125 -9.5 31.125 C-9.17 35.745 -8.84 40.365 -8.5 45.125 C-7.34628906 45.27195313 -6.19257812 45.41890625 -5.00390625 45.5703125 C22.96381183 49.33217164 49.59152871 56.73214367 74.5 70.125 C75.49128906 70.63804687 76.48257812 71.15109375 77.50390625 71.6796875 C94.61127819 80.68356747 109.56902349 92.83519814 123.5 106.125 C124.35207031 106.92421875 125.20414063 107.7234375 126.08203125 108.546875 C157.82628961 139.14134132 177.65887288 182.88866929 184.875 225.9375 C185.04290039 226.91428711 185.21080078 227.89107422 185.38378906 228.89746094 C186.71597695 237.54373438 186.5 245.09780569 186.5 254.125 C133.37 254.455 80.24 254.785 25.5 255.125 C30.78 260.075 36.06 265.025 41.5 270.125 C43.15 271.775 44.8 273.425 46.5 275.125 C49.85372116 275.86611413 49.85372116 275.86611413 53.59741211 275.74404907 C54.30052741 275.75028805 55.00364271 275.75652703 55.72806454 275.76295507 C58.07840135 275.77784842 60.42706867 275.75724772 62.77734375 275.73681641 C64.46453439 275.74035814 66.15172159 275.74613634 67.83889771 275.75398254 C71.46926729 275.76615853 75.09916693 275.76269812 78.72952271 275.74715042 C84.46947491 275.72284276 90.20901518 275.73432469 95.94897461 275.75082397 C106.06088994 275.77531954 116.17261805 275.76951706 126.2845459 275.75701904 C141.5094648 275.73843538 156.73434828 275.74326637 171.95924091 275.77705324 C177.66563074 275.78857303 183.3717213 275.78412048 189.07809448 275.76703286 C192.62705283 275.75913889 196.17592393 275.76338395 199.72488022 275.77074242 C201.37082372 275.7715531 203.01677908 275.76719718 204.66269302 275.75729942 C206.9095775 275.74444121 209.1557056 275.74995111 211.40258789 275.75991821 C212.65987198 275.75803308 213.91715607 275.75614796 215.21253967 275.7542057 C218.7745506 276.1559667 220.65979438 276.97742239 223.5 279.125 C225.84900698 283.82301397 224.81426577 289.81092891 223.375 294.6875 C220.46023913 302.47835615 216.02664644 307.64044146 208.5 311.125 C205.44376721 312.07500766 202.69510084 312.24862352 199.50128174 312.24525452 C198.49449875 312.24662918 197.48771576 312.24800385 196.45042419 312.24942017 C195.35206741 312.24582489 194.25371063 312.24222961 193.12207031 312.23852539 C191.38018181 312.23874443 191.38018181 312.23874443 189.60310364 312.2389679 C185.76142515 312.23827075 181.91979503 312.23048754 178.078125 312.22265625 C175.41583168 312.22079137 172.75354105 312.21931861 170.09124756 312.21836853 C163.79795503 312.21526141 157.5046799 312.20705635 151.21139503 312.19701904 C144.04578201 312.1858387 136.88016816 312.18034261 129.71454859 312.17532361 C114.97635684 312.16487323 100.23817872 312.14728575 85.5 312.125 C85.52900391 313.20313965 85.55800781 314.2812793 85.58789062 315.39208984 C85.61135607 316.83169482 85.63410434 318.27131161 85.65625 319.7109375 C85.67719727 320.41855225 85.69814453 321.12616699 85.71972656 321.85522461 C85.80113853 328.93399497 83.72749191 334.40492638 79.5 340.125 C73.74470952 345.86907159 67.82587045 348.41027155 59.6875 348.5 C48.84672641 348.27438557 44.24458466 344.37873812 36.859375 336.69140625 C34.93025131 334.59300515 33.04293273 332.47564063 31.1875 330.3125 C30.65943756 329.72003479 30.13137512 329.12756958 29.58731079 328.51715088 C28.46855049 327.23500189 27.35788472 325.94407297 26.30677414 324.60590363 C21.10934055 318.02928365 16.21350175 312.72597167 7.64440346 311.39570999 C3.23203625 310.9717137 -1.15512301 310.82461716 -5.5859375 310.765625 C-7.53336369 310.71093989 -9.48076143 310.65523367 -11.4281311 310.59857178 C-15.5052668 310.49859 -19.57894024 310.45417462 -23.65722656 310.44140625 C-27.78049812 310.42022271 -31.87894071 310.2967822 -35.99609375 310.07226562 C-62.81979362 308.40185527 -62.81979362 308.40185527 -86.00878906 320.08007812 C-92.22100545 325.84333232 -97.88048787 332.21971703 -102.94392776 339.01609039 C-107.16030932 344.48452953 -112.17108544 347.40594643 -119.02628517 348.54462814 C-126.37634417 349.20488773 -132.52130258 346.16256189 -138.5 342.125 C-144.74941952 336.37897184 -147.20547163 328.6165577 -147.75 320.3125 C-147.52900354 317.49479508 -147.08091232 314.8843335 -146.5 312.125 C-147.32522581 312.12914807 -147.32522581 312.12914807 -148.16712284 312.13337994 C-161.57193815 312.19971906 -174.97672458 312.24912738 -188.38166904 312.28043652 C-194.86429019 312.29608691 -201.34679278 312.31731414 -207.8293457 312.35131836 C-214.08630983 312.38393356 -220.34315998 312.40185773 -226.60020256 312.40963173 C-228.9863966 312.41517131 -231.37258446 312.42598872 -233.75872993 312.44219017 C-237.1030433 312.46399265 -240.44688667 312.46696567 -243.79125977 312.46557617 C-244.7759726 312.476362 -245.76068542 312.48714783 -246.77523804 312.4982605 C-255.55226054 312.45884597 -261.19341397 310.05707886 -267.703125 304.08984375 C-271.52558439 299.9100675 -273.93465604 294.77843963 -274.5 289.125 C-274.57476562 288.4959375 -274.64953125 287.866875 -274.7265625 287.21875 C-274.77554687 286.5278125 -274.82453125 285.836875 -274.875 285.125 C-274.92398437 284.485625 -274.97296875 283.84625 -275.0234375 283.1875 C-274.16670508 279.81171853 -272.125397 278.31884497 -269.5 276.125 C-266.43067455 275.53604317 -266.43067455 275.53604317 -262.93217468 275.58670044 C-262.28582323 275.58892825 -261.63947178 275.59115606 -260.97353393 275.59345138 C-258.81435053 275.60659638 -256.65743998 275.65530168 -254.4987793 275.70361328 C-252.94769019 275.71972481 -251.39657428 275.73341129 -249.84544373 275.74485779 C-246.50634018 275.77332689 -243.16784318 275.81627359 -239.82904625 275.86963272 C-234.53572121 275.95140956 -229.24279465 275.98420695 -223.94892883 276.0072937 C-208.8957094 276.07900563 -193.84360492 276.19063947 -178.79174805 276.40917969 C-170.47678294 276.52949442 -162.16318968 276.59526827 -153.84733707 276.6020087 C-149.45319628 276.60798722 -145.063253 276.64155286 -140.67020226 276.74332047 C-119.86642078 278.02126759 -119.86642078 278.02126759 -101.60921192 269.89729118 C-99.19404339 267.42722936 -97.02965171 264.89342154 -95.07247639 262.04565239 C-93.5 260.125 -93.5 260.125 -87.5 255.125 C-160.76 254.63 -160.76 254.63 -235.5 254.125 C-235.5 207.14451638 -216.73686093 159.56955929 -187.5 123.125 C-186.695625 122.11695313 -185.89125 121.10890625 -185.0625 120.0703125 C-173.7668054 106.19225623 -161.0374747 93.5779027 -146.5 83.125 C-145.93023437 82.71088867 -145.36046875 82.29677734 -144.7734375 81.87011719 C-114.79588231 60.31114672 -75.9019997 44.76492728 -38.5 46.125 C-38.5 41.175 -38.5 36.225 -38.5 31.125 C-45.43 31.125 -52.36 31.125 -59.5 31.125 C-59.5 19.38664815 -58.94318442 11.07106711 -50.8984375 2.3984375 C-38.42375189 -9.16485555 -13.60897236 -9.72427491 0 0 Z " fill="#FEFDFD" transform="translate(536.5,202.875)"/>
<path d="M0 0 C7.50458255 6.89650373 11.29365105 15.43859243 12.23828125 25.55078125 C12.7286236 43.79667809 5.45595692 61.82514136 -6.53515625 75.4765625 C-19.42848708 88.67639089 -34.70565595 97.98015948 -53.50537109 98.24438477 C-59.18867823 98.25628319 -64.74430938 98.24317385 -70.36328125 97.328125 C-73.84765707 96.72264281 -73.84765707 96.72264281 -76.25 97.96875 C-76.8275 98.4740625 -77.405 98.979375 -78 99.5 C-78.99193359 100.34498047 -78.99193359 100.34498047 -80.00390625 101.20703125 C-80.66261719 101.79871094 -81.32132813 102.39039063 -82 103 C-82.64839844 103.51949219 -83.29679688 104.03898437 -83.96484375 104.57421875 C-88.86782026 108.58397974 -92.71540417 113.16267329 -96.6484375 118.109375 C-99.00535837 121.0065867 -101.46740168 123.75569841 -104 126.5 C-107.27418423 130.05670244 -110.40642433 133.67161811 -113.4375 137.4375 C-117.09700528 141.97477021 -120.94995021 146.26030973 -124.91821289 150.52368164 C-127.86917437 153.71306313 -130.65985753 156.9835583 -133.375 160.375 C-137.42730713 165.41496622 -141.77485712 170.10626744 -146.20483398 174.81030273 C-149.42754525 178.25108867 -152.49494206 181.74971323 -155.4375 185.4375 C-160.23931013 191.43754371 -165.50274591 196.96652926 -170.76953125 202.5546875 C-174.28163311 206.28447748 -177.65127579 210.12379178 -181 214 C-195.50839773 230.65198082 -195.50839773 230.65198082 -201.390625 231.23828125 C-207.48116678 231.39636908 -211.2740193 231.26490941 -216 227 C-220.62425 221.75085136 -221.37806995 218.63880218 -221.26171875 211.73828125 C-220.33318221 202.02329444 -207.88811387 193.65576077 -200.86328125 187.64453125 C-198.41788831 185.48622847 -196.15750999 183.17014872 -193.87426758 180.84301758 C-192.06616509 179.0650619 -190.20370549 177.40287882 -188.28125 175.75 C-184.08685237 172.10253026 -180.03346664 168.32373782 -176 164.5 C-174.50274037 163.08579329 -173.00534121 161.67173428 -171.5078125 160.2578125 C-170.75661133 159.54786133 -170.00541016 158.83791016 -169.23144531 158.10644531 C-165.78673032 154.85469466 -162.33160271 151.61410479 -158.875 148.375 C-158.2162085 147.7574585 -157.55741699 147.13991699 -156.87866211 146.50366211 C-152.44591976 142.35018198 -148.00546331 138.20504107 -143.5625 134.0625 C-137.52558145 128.43292229 -131.50577315 122.78541661 -125.50097656 117.12158203 C-121.79659373 113.62788703 -118.08398993 110.14371945 -114.35546875 106.67578125 C-113.59476074 105.96599121 -112.83405273 105.25620117 -112.05029297 104.52490234 C-110.6054817 103.17718945 -109.15807088 101.83225553 -107.70751953 100.49072266 C-99.72532931 93.03067717 -93.05391655 86.63319736 -92.015625 75.40234375 C-91.89808584 73.06407201 -91.89808584 73.06407201 -92.48413086 71.11914062 C-96.24464174 55.67132497 -91.68156349 39.63136375 -84.1171875 26.20703125 C-80.36641032 20.52550345 -75.82919012 15.77287304 -71 11 C-70.34257813 10.33226562 -69.68515625 9.66453125 -69.0078125 8.9765625 C-50.99389939 -8.10959543 -20.67977345 -16.95126411 0 0 Z " fill="#F35926" transform="translate(620,310)"/>
<path d="M0 0 C2.82654328 1.83077842 5.44713123 3.80555693 8 6 C8.33 3.36 8.66 0.72 9 -2 C15.6 -2 22.2 -2 29 -2 C29.06798094 8.89263846 29.12293408 19.78513426 29.15543652 30.67793751 C29.17104197 35.73678836 29.19218601 40.79548558 29.22631836 45.85424805 C29.2590953 50.74314048 29.27689145 55.63188585 29.28463173 60.52087975 C29.29014249 62.37904866 29.30090305 64.23721022 29.31719017 66.09531593 C29.53679783 92.20545088 29.53679783 92.20545088 20 102 C8.1324725 112.61323598 -5.04294506 112.82004458 -20.29003906 112.22216797 C-28.48138595 111.55062512 -35.47867599 107.63275781 -41.375 102.03125 C-45.17802736 97.2774658 -47 92.03738706 -47 86 C-40.4 86 -33.8 86 -27 86 C-25.02 89.465 -25.02 89.465 -23 93 C-17.72981674 97.08439203 -11.3654451 96.71098927 -5 96 C-0.73127928 95.0116755 1.88594074 93.41913173 4.59765625 89.96484375 C8.56623542 83.16630284 8.54291631 76.69734679 8 69 C7.49210937 69.39832031 6.98421875 69.79664063 6.4609375 70.20703125 C-2.85419613 77.37654421 -10.21822411 79.99153559 -22 79 C-31.03733152 77.03305138 -38.60713894 71.14093936 -43.66796875 63.47265625 C-50.17187593 51.09425226 -50.93976767 36.05152336 -48.3125 22.4375 C-47.40556835 19.77716717 -46.37348436 17.44930958 -45 15 C-44.32904297 13.7934375 -44.32904297 13.7934375 -43.64453125 12.5625 C-33.81643277 -3.45756402 -16.88212362 -8.2780101 0 0 Z " fill="#FEFDFC" transform="translate(431,675)"/>
<path d="M0 0 C1.71508254 1.6168016 3.37685167 3.29092275 5 5 C6.58783765 6.55585379 8.17826261 8.10907058 9.77099609 9.65991211 C14.33892709 14.11541753 18.89097304 18.58657483 23.43208885 23.06940365 C26.1675689 25.7684869 28.90916145 28.46067788 31.66601562 31.13793945 C34.35254536 33.74745212 37.02073668 36.37455803 39.67799759 39.01385689 C40.68193598 40.00505527 41.69192083 40.9901753 42.70850754 41.96839714 C50.91614108 49.87843583 59.37985804 60.2805289 60.1418457 72.22314453 C60.1586438 73.41593018 60.1586438 73.41593018 60.17578125 74.6328125 C60.53139802 89.81501966 61.96120455 98.90761817 73 110 C71.43416404 114.03721561 68.55826135 116.47070582 65.375 119.25 C64.6015625 119.93835938 64.6015625 119.93835938 63.8125 120.640625 C62.5465398 121.76592296 61.27392058 122.88372177 60 124 C56.09120102 122.58572546 52.84031206 120.72384225 49.375 118.4375 C44.49863668 115.22444417 41.41291026 113.86152647 35.5546875 114.0078125 C34.47703125 114.02457031 33.399375 114.04132813 32.2890625 114.05859375 C30.03628241 114.10241213 27.78364329 114.15432384 25.53125 114.21484375 C12.03512484 114.39115892 3.12650815 110.08215604 -6.5703125 100.7578125 C-8.09637371 99.22128089 -9.61456135 97.67689152 -11.125 96.125 C-11.88425781 95.36058594 -12.64351563 94.59617187 -13.42578125 93.80859375 C-17.54814308 89.62946963 -21.48248524 85.34182223 -25.31591797 80.89794922 C-28.07210632 77.79174333 -31.03394237 74.90398213 -34 72 C-38.3623521 67.68304716 -42.65809871 63.36702027 -46.60546875 58.66015625 C-47.53312611 57.55580225 -48.49484928 56.47917438 -49.48828125 55.43359375 C-52.86591958 51.78955014 -54.09068556 48.98770583 -54 44 C-52.5 41.0625 -52.5 41.0625 -50 39 C-46.75 38.25 -46.75 38.25 -43 39 C-39.97372516 40.97557235 -37.5372331 43.43995005 -35 46 C-34.18015625 46.79535156 -33.3603125 47.59070313 -32.515625 48.41015625 C-28.77479635 52.07730191 -25.15776483 55.79201476 -21.73046875 59.75390625 C-17.76115919 64.31901481 -13.61058029 68.68210278 -9.375 73 C-8.63765625 73.77472656 -7.9003125 74.54945313 -7.140625 75.34765625 C-6.42132813 76.07855469 -5.70203125 76.80945313 -4.9609375 77.5625 C-4.31946777 78.22378906 -3.67799805 78.88507813 -3.01708984 79.56640625 C-0.48469848 81.36623705 0.95509259 81.36641787 4 81 C6 80 6 80 7 78 C7.09975462 74.68814651 6.51381568 72.63990934 4.43212891 70.04736328 C2.30047035 67.84293413 0.10955263 65.72503106 -2.125 63.625 C-3.63004667 62.18223112 -5.13267267 60.73693265 -6.6328125 59.2890625 C-7.36935059 58.57903076 -8.10588867 57.86899902 -8.86474609 57.13745117 C-11.52910321 54.47035232 -13.98106416 51.65696469 -16.43212891 48.79492188 C-18.54191901 46.37960315 -20.81586461 44.16124935 -23.125 41.9375 C-32.96418066 32.11334099 -32.96418066 32.11334099 -33.0625 26.3125 C-31.89311732 22.66677753 -31.24430386 21.04903402 -28 19 C-23.21427066 18.72390023 -20.54639986 20.06592957 -17 23.0625 C-14.48448309 25.36658338 -12.25315653 27.84865414 -10.03125 30.4296875 C-5.26439907 35.91118493 -0.25495423 41.14892786 4.82470703 46.33959961 C5.94964975 47.49651024 7.06644905 48.66139068 8.17529297 49.83374023 C9.79589539 51.54537973 11.44109568 53.22951566 13.09375 54.91015625 C13.5825061 55.43706558 14.07126221 55.96397491 14.5748291 56.5068512 C16.16916573 58.17773097 16.16916573 58.17773097 19 60 C23.36193612 60.05566024 23.36193612 60.05566024 27 58 C27.52105791 55.20224441 27.52105791 55.20224441 27 52 C25.31119648 49.79672028 23.77837538 48.09757574 21.77734375 46.2265625 C20.96989464 45.43540543 20.96989464 45.43540543 20.14613342 44.62826538 C18.42354995 42.94576802 16.68170509 41.28504533 14.9375 39.625 C12.67078639 37.43481479 10.4117859 35.2367444 8.15234375 33.0390625 C7.60759399 32.51249557 7.06284424 31.98592865 6.50158691 31.44340515 C2.95838545 28.00068567 -0.38509454 24.45688598 -3.54516602 20.65405273 C-5.2046291 18.76734987 -7.00734374 17.11635817 -8.875 15.4375 C-11.37538113 12.95408978 -12.04845034 11.85949402 -13.25 8.375 C-13 5 -13 5 -10.6875 2.125 C-6.62182499 -1.08971977 -5.04517659 -1.38495044 0 0 Z " fill="#F35825" transform="translate(424,300)"/>
<path d="M0 0 C7.26 0 14.52 0 22 0 C22 14.85 22 29.7 22 45 C36.85 45 51.7 45 67 45 C67 30.15 67 15.3 67 0 C74.59 0 82.18 0 90 0 C90 36.3 90 72.6 90 110 C82.41 110 74.82 110 67 110 C67 95.15 67 80.3 67 65 C52.15 65 37.3 65 22 65 C22 79.85 22 94.7 22 110 C14.74 110 7.48 110 0 110 C0 73.7 0 37.4 0 0 Z " fill="#FEFCFB" transform="translate(103,645)"/>
<path d="M0 0 C24.09 0 48.18 0 73 0 C73 6.27 73 12.54 73 19 C56.17 19 39.34 19 22 19 C22 27.58 22 36.16 22 45 C37.51 45 53.02 45 69 45 C69 51.6 69 58.2 69 65 C53.49 65 37.98 65 22 65 C22 73.58 22 82.16 22 91 C39.82 91 57.64 91 76 91 C76 97.27 76 103.54 76 110 C50.92 110 25.84 110 0 110 C0 73.7 0 37.4 0 0 Z " fill="#FEFDFC" transform="translate(620,645)"/>
<path d="M0 0 C7.50564706 6.43341177 11.90259412 13.45354082 12.97131348 23.50814819 C13.08462051 27.08922146 13.07556905 30.6481391 13.015625 34.23046875 C13.00996521 35.52447098 13.00430542 36.81847321 12.99847412 38.15168762 C12.98337084 41.55327608 12.94422741 44.95415585 12.8996582 48.35546875 C12.85836959 51.84169942 12.84039227 55.32804722 12.8203125 58.81445312 C12.77771305 65.62661843 12.70749418 72.43820199 12.625 79.25 C6.355 79.25 0.085 79.25 -6.375 79.25 C-6.375 76.61 -6.375 73.97 -6.375 71.25 C-6.98085938 71.72050781 -7.58671875 72.19101562 -8.2109375 72.67578125 C-18.08162435 80.01046086 -27.03784751 82.55503704 -39.375 81.25 C-47.56215062 79.51788069 -52.71226527 75.09256321 -57.375 68.25 C-60.37623988 61.24710694 -60.30841892 54.19675751 -57.8125 47.0625 C-55.08502714 40.99622416 -51.82072636 37.72386544 -45.69921875 35.10546875 C-33.88478822 31.09726932 -20.85119442 28.96548017 -8.375 29.25 C-8.80596765 21.7340932 -8.80596765 21.7340932 -12.375 15.25 C-15.79807139 13.02029295 -18.78263708 12.9514764 -22.8125 12.9375 C-23.92496094 12.92074219 -25.03742187 12.90398438 -26.18359375 12.88671875 C-29.80909805 13.29941385 -31.55146939 13.9495248 -34.375 16.25 C-35.365 18.23 -36.355 20.21 -37.375 22.25 C-43.975 22.25 -50.575 22.25 -57.375 22.25 C-56.36618841 13.17069573 -55.15590594 8.83693124 -48.73828125 2.6796875 C-35.62934252 -7.52633939 -14.26005135 -7.3941007 0 0 Z " fill="#FEFCFB" transform="translate(765.375,675.75)"/>
<path d="M0 0 C7.70242678 5.96810552 12.03462946 14.52914286 14.359375 23.828125 C14.359375 30.428125 14.359375 37.028125 14.359375 43.828125 C-3.790625 43.828125 -21.940625 43.828125 -40.640625 43.828125 C-37.93521722 53.63732979 -37.93521722 53.63732979 -31.640625 60.828125 C-27.91187951 62.70505245 -24.79398892 63.12473203 -20.640625 63.140625 C-19.63 63.15738281 -18.619375 63.17414063 -17.578125 63.19140625 C-14.19422791 62.77291898 -12.36597008 61.8484763 -9.640625 59.828125 C-8.650625 58.343125 -8.650625 58.343125 -7.640625 56.828125 C-5.66943359 56.48754883 -5.66943359 56.48754883 -3.2890625 56.53515625 C-2.01289062 56.5496582 -2.01289062 56.5496582 -0.7109375 56.56445312 C0.17851563 56.58958984 1.06796875 56.61472656 1.984375 56.640625 C3.33015625 56.66092773 3.33015625 56.66092773 4.703125 56.68164062 C6.92247289 56.71705575 9.14062688 56.76644039 11.359375 56.828125 C10.16771271 64.14290307 6.23285363 69.96441611 0.3984375 74.5078125 C-9.2554142 80.75877395 -20.47952309 81.18767875 -31.640625 79.828125 C-41.58683961 77.39539286 -49.9542351 71.35770984 -55.640625 62.828125 C-62.30140755 50.24664685 -63.89707117 35.76710926 -60.078125 22.015625 C-55.69740655 9.725276 -49.03663382 1.73327246 -37.42578125 -4.328125 C-25.40537023 -9.16315066 -10.6743305 -6.82891951 0 0 Z " fill="#FEFCFB" transform="translate(533.640625,677.171875)"/>
<path d="M0 0 C6.90310736 5.48502717 9.40867739 12.10509465 11.015625 20.6015625 C11.3856415 25.26917691 11.36732523 29.90221152 11.30859375 34.58203125 C11.30434891 35.87603348 11.30010406 37.17003571 11.29573059 38.50325012 C11.2844036 41.90469506 11.25504533 45.30574132 11.22161865 48.70703125 C11.19065181 52.19330455 11.17716906 55.67964375 11.16210938 59.16601562 C11.13016044 65.97804254 11.07749584 72.7897422 11.015625 79.6015625 C4.085625 79.6015625 -2.844375 79.6015625 -9.984375 79.6015625 C-9.99895752 77.96687012 -10.01354004 76.33217773 -10.02856445 74.64794922 C-10.08658978 68.57595072 -10.16382347 62.5043214 -10.24682617 56.43261719 C-10.28005538 53.80605059 -10.3080935 51.17941293 -10.33081055 48.55273438 C-10.36439228 44.77443189 -10.41671253 40.99677945 -10.47265625 37.21875 C-10.47904617 36.04665985 -10.4854361 34.8745697 -10.49201965 33.66696167 C-10.59651503 27.85631706 -10.80679831 23.65883988 -13.984375 18.6015625 C-13.984375 17.9415625 -13.984375 17.2815625 -13.984375 16.6015625 C-19.98323698 14.64275043 -25.00575489 13.55028481 -31.171875 15.7265625 C-35.36477849 18.52183149 -37.40600039 21.86643868 -38.984375 26.6015625 C-39.09991391 28.33433412 -39.16082635 30.07099371 -39.18969727 31.80737305 C-39.20964249 32.86824631 -39.22958771 33.92911957 -39.25013733 35.0221405 C-39.26684982 36.16596695 -39.28356232 37.3097934 -39.30078125 38.48828125 C-39.32156235 39.66042679 -39.34234344 40.83257233 -39.36375427 42.04023743 C-39.42921318 45.78978536 -39.48811796 49.53940413 -39.546875 53.2890625 C-39.59006368 55.82878341 -39.63367808 58.36849712 -39.67773438 60.90820312 C-39.7848909 67.13925005 -39.88616888 73.37036834 -39.984375 79.6015625 C-46.914375 79.6015625 -53.844375 79.6015625 -60.984375 79.6015625 C-60.984375 52.5415625 -60.984375 25.4815625 -60.984375 -2.3984375 C-54.384375 -2.3984375 -47.784375 -2.3984375 -40.984375 -2.3984375 C-40.654375 0.2415625 -40.324375 2.8815625 -39.984375 5.6015625 C-39.571875 5.20324219 -39.159375 4.80492187 -38.734375 4.39453125 C-28.63710591 -4.8688116 -12.09065088 -7.36131465 0 0 Z " fill="#FEFCFC" transform="translate(357.984375,675.3984375)"/>
<path d="M0 0 C6.6 0 13.2 0 20 0 C20.01458252 1.62421875 20.02916504 3.2484375 20.04418945 4.921875 C20.10231275 10.96783073 20.17954572 17.01341952 20.26245117 23.05908203 C20.29563439 25.67197702 20.32368671 28.28494255 20.34643555 30.89794922 C20.38010208 34.66143761 20.43242649 38.42428339 20.48828125 42.1875 C20.49467117 43.34926758 20.5010611 44.51103516 20.50764465 45.70800781 C20.63387609 52.72636026 20.91050827 59.31637525 25.625 64.9375 C30.07175406 66.92683734 34.51503715 67.72657218 39.2578125 66.33984375 C43.54875591 64.38437692 46.10302565 62.46346905 48 58 C48.96703299 54.8240567 49.15112886 51.90240675 49.20532227 48.58886719 C49.22526749 47.50804871 49.24521271 46.42723022 49.26576233 45.31365967 C49.29083107 43.57285126 49.29083107 43.57285126 49.31640625 41.796875 C49.33718735 40.60394836 49.35796844 39.41102173 49.37937927 38.1819458 C49.44476239 34.37135577 49.50370776 30.56069686 49.5625 26.75 C49.60569589 24.16665954 49.64931052 21.58332605 49.69335938 19 C49.80043237 12.66673726 49.90173174 6.33340523 50 0 C56.93 0 63.86 0 71 0 C71 27.06 71 54.12 71 82 C64.4 82 57.8 82 51 82 C51 79.69 51 77.38 51 75 C50.47792969 75.47050781 49.95585937 75.94101562 49.41796875 76.42578125 C41.74915787 82.91270884 33.6357353 85.74098709 23.54296875 85.33984375 C15.56873706 84.27416302 9.68574167 81.6156034 4.4375 75.48828125 C-0.43793317 67.04901242 -0.40436607 58.66334098 -0.29296875 49.12109375 C-0.28736236 47.69906566 -0.2830972 46.27703172 -0.28010559 44.85499573 C-0.26873869 41.14117992 -0.23934372 37.42772506 -0.20599365 33.71405029 C-0.17511511 29.91293213 -0.16156255 26.11175474 -0.14648438 22.31054688 C-0.11446445 14.87351556 -0.06176527 7.43685467 0 0 Z " fill="#FEFDFD" transform="translate(210,673)"/>
<path d="M0 0 C6.79914264 5.45906266 8.3071281 11.2048857 9.7578125 19.57421875 C3.1578125 19.57421875 -3.4421875 19.57421875 -10.2421875 19.57421875 C-11.2321875 17.59421875 -12.2221875 15.61421875 -13.2421875 13.57421875 C-18.63145643 10.27466634 -23.99979714 9.66044779 -30.2421875 10.57421875 C-34.29425258 12.42252914 -35.80028527 13.3958128 -37.3671875 17.57421875 C-37.50349631 20.57103901 -37.50349631 20.57103901 -35.86328125 22.6328125 C-31.95671114 25.52635251 -27.91309239 25.89079388 -23.1796875 26.63671875 C-21.28075226 26.96851803 -19.38230584 27.30312786 -17.484375 27.640625 C-16.1226416 27.87869873 -16.1226416 27.87869873 -14.73339844 28.12158203 C-4.23815641 30.0284988 3.28775877 32.58803301 9.7578125 41.57421875 C13.10609961 48.43023522 12.72127029 56.64655161 10.3203125 63.76171875 C6.90237409 71.25260118 1.00042857 76.01797661 -6.5546875 79.07421875 C-18.86394168 82.62952323 -33.94491333 82.24771486 -45.43359375 76.47265625 C-52.47965634 72.45004225 -56.56143748 67.33428459 -59.2421875 59.57421875 C-59.28773403 57.90817455 -59.29629003 56.24000706 -59.2421875 54.57421875 C-56.15957294 54.39957905 -53.07822917 54.29327808 -49.9921875 54.19921875 C-49.11949219 54.14894531 -48.24679687 54.09867188 -47.34765625 54.046875 C-44.84963789 53.98966847 -42.67843618 54.01016679 -40.2421875 54.57421875 C-38.0078125 57.41015625 -38.0078125 57.41015625 -36.2421875 60.57421875 C-31.88437189 63.44311403 -28.41071218 63.9832222 -23.2421875 63.94921875 C-22.0665625 63.95695313 -20.8909375 63.9646875 -19.6796875 63.97265625 C-15.85120119 63.52889988 -13.44459397 62.71550094 -10.2421875 60.57421875 C-9.20510707 58.44658747 -9.20510707 58.44658747 -9.1796875 56.07421875 C-9.10621094 55.30078125 -9.03273438 54.52734375 -8.95703125 53.73046875 C-9.31704129 51.00820106 -10.09216039 50.22692651 -12.2421875 48.57421875 C-16.73231692 46.87794764 -21.17956249 46.27636031 -25.9296875 45.63671875 C-46.09273071 42.86671601 -46.09273071 42.86671601 -53.4921875 35.26171875 C-57.60868197 28.93995938 -58.0487582 21.91608023 -57.2421875 14.57421875 C-55.43588061 7.37185585 -51.38474987 2.60658112 -45.2421875 -1.42578125 C-32.61427232 -8.68468488 -12.18173778 -7.74622699 0 0 Z " fill="#FEFCFB" transform="translate(910.2421875,676.42578125)"/>
<path d="M0 0 C4.90004125 4.10105363 9.46899083 8.37428734 13.9375 12.9375 C18.18654535 17.23571894 22.46175483 21.39071562 27.078125 25.296875 C30.39499647 28.23621638 33.44892758 31.44220719 36.5625 34.59375 C38.65000635 36.65449345 40.77169223 38.59515626 43 40.5 C46.99269088 43.91310672 50.64957939 47.61308153 54.3125 51.375 C57.07185024 54.0701793 59.93365371 56.59438797 62.84570312 59.12158203 C66.53326745 62.33691747 70.15132626 65.6232685 73.75 68.9375 C74.49121094 69.60201172 75.23242188 70.26652344 75.99609375 70.95117188 C81.09140146 75.66684715 85.43546781 80.41317596 86.3125 87.5390625 C85.35593626 93.92412546 83.32039104 97.95584599 78.375 102.3125 C75.29757977 104.49908806 73.54133077 105.19055889 69.8125 105.3125 C68.70841797 105.36857422 68.70841797 105.36857422 67.58203125 105.42578125 C61.04646727 104.34805587 56.71580024 100.09910888 52.5625 95.25 C51.61217918 94.17575265 50.66034887 93.1028388 49.70703125 92.03125 C49.2476416 91.51175781 48.78825195 90.99226562 48.31494141 90.45703125 C46.53099471 88.48031497 44.65266805 86.61202853 42.75 84.75 C39.58368664 81.63517141 36.67488884 78.36714337 33.78125 75 C31.29742572 72.21114467 28.63288563 69.62313017 25.97265625 67.00390625 C23.42662171 64.41753849 21.07978443 61.6846472 18.71484375 58.93359375 C16.52786492 56.46763812 14.19233482 54.17939684 11.84082031 51.87182617 C10.0781465 50.07946276 8.43084211 48.23449815 6.79296875 46.328125 C2.90992941 41.86216712 -1.12137504 37.54902038 -5.1875 33.25 C-5.88552734 32.50878906 -6.58355469 31.76757812 -7.30273438 31.00390625 C-10.49235462 27.62309088 -13.70246357 24.2761858 -17 21 C-15.36672452 16.99367132 -12.55715678 14.15283892 -9.625 11.0625 C-6.25584872 7.48165071 -3.02132801 3.88763296 0 0 Z " fill="#F35826" transform="translate(527,437)"/>
<path d="M0 0 C0 7.26 0 14.52 0 22 C6.6 22 13.2 22 20 22 C20 27.28 20 32.56 20 38 C13.4 38 6.8 38 0 38 C0.09692466 44.33581166 0.19964993 50.67096754 0.31738281 57.00634766 C0.35566602 59.16156253 0.39052004 61.31684116 0.421875 63.47216797 C0.4675395 66.57021876 0.52553212 69.66783091 0.5859375 72.765625 C0.59748871 73.72929993 0.60903992 74.69297485 0.62094116 75.68585205 C0.64081085 76.58648376 0.66068054 77.48711548 0.68115234 78.41503906 C0.69447601 79.20557678 0.70779968 79.9961145 0.7215271 80.81060791 C1.03482451 83.27379504 1.69148962 84.89711819 3 87 C5.85195222 88.42597611 8.32461175 88.1320252 11.5 88.125 C12.6653125 88.12757813 13.830625 88.13015625 15.03125 88.1328125 C17.92930786 88.2048431 17.92930786 88.2048431 20 87 C20 92.61 20 98.22 20 104 C15.16549481 105.2086263 10.71104351 105.26103689 5.75 105.3125 C4.83347656 105.34150391 3.91695312 105.37050781 2.97265625 105.40039062 C-4.27587739 105.46760242 -9.40967339 103.97345583 -15.0234375 99.32421875 C-15.69246094 98.51404297 -15.69246094 98.51404297 -16.375 97.6875 C-16.83648438 97.15511719 -17.29796875 96.62273437 -17.7734375 96.07421875 C-21.57300314 89.64883864 -21.26741694 82.83205297 -21.1953125 75.59765625 C-21.1924826 74.51995468 -21.18965271 73.44225311 -21.18673706 72.33189392 C-21.17559193 68.90864701 -21.15049756 65.48566709 -21.125 62.0625 C-21.11496289 59.73372775 -21.10583832 57.40495138 -21.09765625 55.07617188 C-21.07567111 49.38401259 -21.04118018 43.69205148 -21 38 C-24.63 38 -28.26 38 -32 38 C-32 32.72 -32 27.44 -32 22 C-28.37 22 -24.74 22 -21 22 C-21 15.07 -21 8.14 -21 1 C-13.92218045 0.4101817 -7.1169066 0 0 0 Z " fill="#FEFDFC" transform="translate(821,651)"/>
<path d="M0 0 C0 7.26 0 14.52 0 22 C-3.2175 21.87625 -3.2175 21.87625 -6.5 21.75 C-12.49158305 21.76815631 -17.34218876 21.96401243 -22 26 C-25.44674918 30.4474183 -27.1005246 35.07081091 -27.20532227 40.6550293 C-27.22526749 41.59577805 -27.24521271 42.53652679 -27.26576233 43.50578308 C-27.29083107 45.02465874 -27.29083107 45.02465874 -27.31640625 46.57421875 C-27.33718735 47.61318802 -27.35796844 48.65215729 -27.37937927 49.72261047 C-27.44480656 53.04417253 -27.50372821 56.36581416 -27.5625 59.6875 C-27.60569169 61.9381593 -27.64930619 64.18881052 -27.69335938 66.43945312 C-27.80127727 71.95955501 -27.9004018 77.4797166 -28 83 C-34.93 83 -41.86 83 -49 83 C-49 55.94 -49 28.88 -49 1 C-42.4 1 -35.8 1 -29 1 C-28.67 4.3 -28.34 7.6 -28 11 C-27.50371094 10.45730469 -27.00742187 9.91460938 -26.49609375 9.35546875 C-18.11487347 0.52894644 -11.99100413 -0.3708558 0 0 Z " fill="#FEFCFB" transform="translate(608,672)"/>
<path d="M0 0 C3.5 1.75 3.5 1.75 6 4 C6.721875 4.556875 7.44375 5.11375 8.1875 5.6875 C13.68964586 12.7074792 13.77487428 21.43392405 13 30 C11.81305665 36.17394563 9.54536708 40.66124051 5 45 C-0.16698504 47.98095291 -5.14098661 49.18354027 -11 48 C-17.03846635 45.35393047 -20.76415366 41.88691711 -23.34375 35.83203125 C-26.43257476 27.20906212 -26.19206262 17.49290146 -22.34765625 9.12890625 C-16.83354067 0.41820193 -9.76782403 -0.93331303 0 0 Z " fill="#F35826" transform="translate(427,689)"/>
<path d="M0 0 C0.41289689 7.56977639 -0.50183342 13.91016239 -5.375 19.9375 C-11.14404656 24.47032229 -16.89465387 24.69450752 -24 24 C-27.05348543 22.75367942 -28.36625001 21.84499999 -30.3125 19.25 C-31.32453615 15.93788168 -31.42314481 13.44560774 -31 10 C-28.2619208 5.69730411 -25.18106173 4.56211456 -20.4375 3.3125 C-5.24893466 0 -5.24893466 0 0 0 Z " fill="#F35826" transform="translate(758,717)"/>
<path d="M0 0 C4.03654111 1.9828623 6.6500056 4.16579861 9 8 C10 11 10 11 10 19 C-1.22 19 -12.44 19 -24 19 C-24 12.84089048 -23.51729979 9.86626419 -20 5 C-14.36389362 -0.62255805 -7.62449614 -1.16887494 0 0 Z " fill="#F35624" transform="translate(517,688)"/>
<path d="M0 0 C0.33 0 0.66 0 1 0 C1 3.63 1 7.26 1 11 C50.17 11 99.34 11 150 11 C148.68 12.32 147.36 13.64 146 15 C145.67 14.34 145.34 13.68 145 13 C144.25878434 13.00092179 143.51756868 13.00184359 142.75389194 13.00279331 C124.74459944 13.02484749 106.73530962 13.04141103 88.72600651 13.05181217 C80.0169584 13.05697537 71.30791929 13.06401851 62.59887695 13.07543945 C55.01086259 13.08538558 47.42285474 13.09185326 39.83483404 13.09408849 C35.81452881 13.09539572 31.79424222 13.09848234 27.77394295 13.10573006 C23.99426016 13.11248915 20.2146038 13.11461719 16.43491554 13.11310768 C15.04369717 13.11338406 13.65247797 13.11538985 12.2612648 13.11920547 C10.36986674 13.12414091 8.47845468 13.12239798 6.58705139 13.12025452 C4.9955758 13.12163721 4.9955758 13.12163721 3.3719492 13.12304783 C1 13 1 13 0 12 C-0.07244053 9.98035801 -0.08377188 7.95832876 -0.0625 5.9375 C-0.05347656 4.83277344 -0.04445313 3.72804688 -0.03515625 2.58984375 C-0.02355469 1.73519531 -0.01195312 0.88054687 0 0 Z " fill="#F3511D" transform="translate(300,446)"/>
<path d="M0 0 C4.01457459 1.56643448 6.4674966 4.40387332 9.25 7.5625 C9.70890625 8.06974609 10.1678125 8.57699219 10.640625 9.09960938 C14 12.8539109 14 12.8539109 14 14 C5.42 14 -3.16 14 -12 14 C-8 9.33333333 -4 4.66666667 0 0 Z " fill="#F35624" transform="translate(503,465)"/>
<path d="M0 0 C3.31248187 -0.02888146 6.62493167 -0.04675799 9.9375 -0.0625 C10.88302734 -0.07087891 11.82855469 -0.07925781 12.80273438 -0.08789062 C14.15141602 -0.09272461 14.15141602 -0.09272461 15.52734375 -0.09765625 C16.77632446 -0.10551147 16.77632446 -0.10551147 18.05053711 -0.11352539 C20 0 20 0 21 1 C21.09986975 3.84335048 21.13877881 6.65697163 21.125 9.5 C21.13080078 10.69689453 21.13080078 10.69689453 21.13671875 11.91796875 C21.12660767 17.87339233 21.12660767 17.87339233 20 19 C18.43827255 19.08685603 16.87270656 19.10702219 15.30859375 19.09765625 C14.36435547 19.09443359 13.42011719 19.09121094 12.44726562 19.08789062 C10.95743164 19.07532227 10.95743164 19.07532227 9.4375 19.0625 C8.44041016 19.05798828 7.44332031 19.05347656 6.41601562 19.04882812 C3.94395151 19.03700007 1.47200482 19.02051849 -1 19 C-1 18.67 -1 18.34 -1 18 C5.6 18 12.2 18 19 18 C19 12.72 19 7.44 19 2 C12.4 2 5.8 2 -1 2 C-0.67 1.34 -0.34 0.68 0 0 Z " fill="#F46B40" transform="translate(822,671)"/>
<path d="M0 0 C0.89589844 0.00322266 1.79179687 0.00644531 2.71484375 0.00976562 C4.12056641 0.02233398 4.12056641 0.02233398 5.5546875 0.03515625 C6.49957031 0.03966797 7.44445312 0.04417969 8.41796875 0.04882812 C10.75527137 0.06063268 13.09244811 0.07709866 15.4296875 0.09765625 C15.4296875 0.75765625 15.4296875 1.41765625 15.4296875 2.09765625 C8.8296875 2.09765625 2.2296875 2.09765625 -4.5703125 2.09765625 C-4.5703125 5.06765625 -4.5703125 8.03765625 -4.5703125 11.09765625 C-5.5603125 10.10765625 -6.5503125 9.11765625 -7.5703125 8.09765625 C-7.3828125 4.47265625 -7.3828125 4.47265625 -6.5703125 1.09765625 C-4.16971433 -0.10264283 -2.67670601 -0.01694118 0 0 Z " fill="#F24C18" transform="translate(444.5703125,670.90234375)"/>
<path d="M0 0 C5.43733055 4.52991796 10.46458931 9.34294216 15.4375 14.375 C16.16904297 15.11105469 16.90058594 15.84710938 17.65429688 16.60546875 C19.43852723 18.40136074 21.22036124 20.19955985 23 22 C22.01 22.33 21.02 22.66 20 23 C19.31035156 22.23816406 18.62070312 21.47632813 17.91015625 20.69140625 C16.96147844 19.64794544 16.01221776 18.60501437 15.0625 17.5625 C14.56903076 17.02061035 14.07556152 16.4787207 13.56713867 15.92041016 C9.71070439 11.71282793 5.70789776 7.68741187 1.58203125 3.7421875 C0 2 0 2 0 0 Z " fill="#F24A18" transform="translate(400,359)"/>
<path d="M0 0 C6.6 0 13.2 0 20 0 C22 7 22 7 22 10 C21.34 10.66 20.68 11.32 20 12 C19 11 19 11 18.90234375 8.71484375 C18.93489583 6.14322917 18.96744792 3.57161458 19 1 C12.73 1 6.46 1 0 1 C0 0.67 0 0.34 0 0 Z " fill="#F24612" transform="translate(560,672)"/>
<path d="M0 0 C5.05153479 0.01325862 7.44395626 1.01652775 11.1484375 4.4921875 C12.5729591 5.93785228 13.98151569 7.39939507 15.375 8.875 C16.09816406 9.60847656 16.82132812 10.34195312 17.56640625 11.09765625 C22.84485119 16.53455357 22.84485119 16.53455357 24 20 C20.74957109 18.60493574 18.92628208 17.03216606 16.6875 14.3125 C9.7564749 5.62266278 9.7564749 5.62266278 0 1 C0 0.67 0 0.34 0 0 Z " fill="#F34615" transform="translate(376,339)"/>
<path d="M0 0 C0.99 0.66 1.98 1.32 3 2 C-3.93 8.435 -3.93 8.435 -11 15 C-11.66 14.67 -12.32 14.34 -13 14 C-12.14535156 13.15695312 -11.29070312 12.31390625 -10.41015625 11.4453125 C-9.29413953 10.33867407 -8.17826128 9.23189598 -7.0625 8.125 C-6.49853516 7.56941406 -5.93457031 7.01382812 -5.35351562 6.44140625 C-2.30139972 3.5078429 -2.30139972 3.5078429 0 0 Z " fill="#F34B19" transform="translate(523,399)"/>
<path d="M0 0 C3 3 6 6 9 9 C8.34 10.32 7.68 11.64 7 13 C6.34 12.67 5.68 12.34 5 12 C5 11.01 5 10.02 5 9 C3.91566722 7.19406429 3.91566722 7.19406429 2.5 5.4375 C0 2.20833333 0 2.20833333 0 0 Z " fill="#F24D1D" transform="translate(488,401)"/>
<path d="M0 0 C0 3.66184524 -0.919642 5.02806 -3 8 C-5.1875 9.8125 -5.1875 9.8125 -7 11 C-7.66 10.67 -8.32 10.34 -9 10 C-6.03 6.7 -3.06 3.4 0 0 Z " fill="#F24614" transform="translate(523,442)"/>
<path d="M0 0 C0.99 0.33 1.98 0.66 3 1 C-1.39453125 5.00390625 -1.39453125 5.00390625 -3 6 C-3.99 5.67 -4.98 5.34 -6 5 C-1.60546875 0.99609375 -1.60546875 0.99609375 0 0 Z " fill="#F34713" transform="translate(413,690)"/>
<path d="M0 0 C0 0.99 0 1.98 0 3 C-0.99 3.66 -1.98 4.32 -3 5 C-3 4.01 -3 3.02 -3 2 C-2.01 1.34 -1.02 0.68 0 0 Z " fill="#F2511F" transform="translate(556,315)"/>
</svg>
